<mxfile host="app.diagrams.net" agent="Mozilla/5.0 (Windows NT 10.0; Win64; x64) AppleWebKit/537.36 (KHTML, like Gecko) Chrome/130.0.0.0 Safari/537.36" version="24.8.4">
  <diagram id="C5RBs43oDa-KdzZeNtuy" name="Page-1">
    <mxGraphModel dx="2604" dy="1424" grid="1" gridSize="10" guides="1" tooltips="1" connect="1" arrows="1" fold="1" page="1" pageScale="1" pageWidth="827" pageHeight="1169" math="0" shadow="0">
      <root>
        <mxCell id="WIyWlLk6GJQsqaUBKTNV-0" />
        <mxCell id="WIyWlLk6GJQsqaUBKTNV-1" parent="WIyWlLk6GJQsqaUBKTNV-0" />
        <mxCell id="zkfFHV4jXpPFQw0GAbJ--0" value="Api" style="swimlane;fontStyle=2;align=center;verticalAlign=top;childLayout=stackLayout;horizontal=1;startSize=26;horizontalStack=0;resizeParent=1;resizeLast=0;collapsible=1;marginBottom=0;rounded=0;shadow=0;strokeWidth=1;" parent="WIyWlLk6GJQsqaUBKTNV-1" vertex="1">
          <mxGeometry x="280" y="120" width="160" height="182" as="geometry">
            <mxRectangle x="230" y="140" width="160" height="26" as="alternateBounds" />
          </mxGeometry>
        </mxCell>
        <mxCell id="zkfFHV4jXpPFQw0GAbJ--1" value="Builder" style="text;align=left;verticalAlign=top;spacingLeft=4;spacingRight=4;overflow=hidden;rotatable=0;points=[[0,0.5],[1,0.5]];portConstraint=eastwest;" parent="zkfFHV4jXpPFQw0GAbJ--0" vertex="1">
          <mxGeometry y="26" width="160" height="26" as="geometry" />
        </mxCell>
        <mxCell id="zkfFHV4jXpPFQw0GAbJ--2" value="Application" style="text;align=left;verticalAlign=top;spacingLeft=4;spacingRight=4;overflow=hidden;rotatable=0;points=[[0,0.5],[1,0.5]];portConstraint=eastwest;rounded=0;shadow=0;html=0;" parent="zkfFHV4jXpPFQw0GAbJ--0" vertex="1">
          <mxGeometry y="52" width="160" height="26" as="geometry" />
        </mxCell>
        <mxCell id="Flz3jdfBrqk5ybjkT4bZ-0" value="Respositories" style="text;align=left;verticalAlign=top;spacingLeft=4;spacingRight=4;overflow=hidden;rotatable=0;points=[[0,0.5],[1,0.5]];portConstraint=eastwest;rounded=0;shadow=0;html=0;" vertex="1" parent="zkfFHV4jXpPFQw0GAbJ--0">
          <mxGeometry y="78" width="160" height="26" as="geometry" />
        </mxCell>
        <mxCell id="zkfFHV4jXpPFQw0GAbJ--3" value="Services" style="text;align=left;verticalAlign=top;spacingLeft=4;spacingRight=4;overflow=hidden;rotatable=0;points=[[0,0.5],[1,0.5]];portConstraint=eastwest;rounded=0;shadow=0;html=0;" parent="zkfFHV4jXpPFQw0GAbJ--0" vertex="1">
          <mxGeometry y="104" width="160" height="26" as="geometry" />
        </mxCell>
        <mxCell id="Flz3jdfBrqk5ybjkT4bZ-3" value="DBClientA" style="text;align=left;verticalAlign=top;spacingLeft=4;spacingRight=4;overflow=hidden;rotatable=0;points=[[0,0.5],[1,0.5]];portConstraint=eastwest;rounded=0;shadow=0;html=0;" vertex="1" parent="zkfFHV4jXpPFQw0GAbJ--0">
          <mxGeometry y="130" width="160" height="26" as="geometry" />
        </mxCell>
        <mxCell id="Flz3jdfBrqk5ybjkT4bZ-6" value="DBClientB" style="text;align=left;verticalAlign=top;spacingLeft=4;spacingRight=4;overflow=hidden;rotatable=0;points=[[0,0.5],[1,0.5]];portConstraint=eastwest;rounded=0;shadow=0;html=0;" vertex="1" parent="zkfFHV4jXpPFQw0GAbJ--0">
          <mxGeometry y="156" width="160" height="26" as="geometry" />
        </mxCell>
        <mxCell id="Flz3jdfBrqk5ybjkT4bZ-8" value="Builder" style="swimlane;fontStyle=2;align=center;verticalAlign=top;childLayout=stackLayout;horizontal=1;startSize=26;horizontalStack=0;resizeParent=1;resizeLast=0;collapsible=1;marginBottom=0;rounded=0;shadow=0;strokeWidth=1;" vertex="1" parent="WIyWlLk6GJQsqaUBKTNV-1">
          <mxGeometry x="40" y="40" width="160" height="60" as="geometry">
            <mxRectangle x="230" y="140" width="160" height="26" as="alternateBounds" />
          </mxGeometry>
        </mxCell>
        <mxCell id="Flz3jdfBrqk5ybjkT4bZ-9" value="Builder" style="text;align=left;verticalAlign=top;spacingLeft=4;spacingRight=4;overflow=hidden;rotatable=0;points=[[0,0.5],[1,0.5]];portConstraint=eastwest;" vertex="1" parent="Flz3jdfBrqk5ybjkT4bZ-8">
          <mxGeometry y="26" width="160" height="24" as="geometry" />
        </mxCell>
        <mxCell id="Flz3jdfBrqk5ybjkT4bZ-24" style="edgeStyle=orthogonalEdgeStyle;rounded=0;orthogonalLoop=1;jettySize=auto;html=1;" edge="1" parent="WIyWlLk6GJQsqaUBKTNV-1" source="Flz3jdfBrqk5ybjkT4bZ-9" target="zkfFHV4jXpPFQw0GAbJ--1">
          <mxGeometry relative="1" as="geometry" />
        </mxCell>
        <mxCell id="Flz3jdfBrqk5ybjkT4bZ-134" style="edgeStyle=orthogonalEdgeStyle;rounded=0;orthogonalLoop=1;jettySize=auto;html=1;entryX=0;entryY=0.5;entryDx=0;entryDy=0;" edge="1" parent="WIyWlLk6GJQsqaUBKTNV-1" source="Flz3jdfBrqk5ybjkT4bZ-36" target="Flz3jdfBrqk5ybjkT4bZ-0">
          <mxGeometry relative="1" as="geometry">
            <Array as="points">
              <mxPoint x="760" y="370" />
              <mxPoint x="260" y="370" />
              <mxPoint x="260" y="211" />
            </Array>
          </mxGeometry>
        </mxCell>
        <mxCell id="Flz3jdfBrqk5ybjkT4bZ-36" value="RespositoryA" style="swimlane;fontStyle=2;align=center;verticalAlign=top;childLayout=stackLayout;horizontal=1;startSize=26;horizontalStack=0;resizeParent=1;resizeLast=0;collapsible=1;marginBottom=0;rounded=0;shadow=0;strokeWidth=1;" vertex="1" parent="WIyWlLk6GJQsqaUBKTNV-1">
          <mxGeometry x="680" y="440" width="160" height="164" as="geometry">
            <mxRectangle x="230" y="140" width="160" height="26" as="alternateBounds" />
          </mxGeometry>
        </mxCell>
        <mxCell id="Flz3jdfBrqk5ybjkT4bZ-41" value="Api" style="text;align=left;verticalAlign=top;spacingLeft=4;spacingRight=4;overflow=hidden;rotatable=0;points=[[0,0.5],[1,0.5]];portConstraint=eastwest;rounded=0;shadow=0;html=0;" vertex="1" parent="Flz3jdfBrqk5ybjkT4bZ-36">
          <mxGeometry y="26" width="160" height="26" as="geometry" />
        </mxCell>
        <mxCell id="Flz3jdfBrqk5ybjkT4bZ-42" value="QueryHandlerA" style="text;align=left;verticalAlign=top;spacingLeft=4;spacingRight=4;overflow=hidden;rotatable=0;points=[[0,0.5],[1,0.5]];portConstraint=eastwest;rounded=0;shadow=0;html=0;" vertex="1" parent="Flz3jdfBrqk5ybjkT4bZ-36">
          <mxGeometry y="52" width="160" height="26" as="geometry" />
        </mxCell>
        <mxCell id="Flz3jdfBrqk5ybjkT4bZ-46" value="QueryHandlerB" style="text;align=left;verticalAlign=top;spacingLeft=4;spacingRight=4;overflow=hidden;rotatable=0;points=[[0,0.5],[1,0.5]];portConstraint=eastwest;rounded=0;shadow=0;html=0;" vertex="1" parent="Flz3jdfBrqk5ybjkT4bZ-36">
          <mxGeometry y="78" width="160" height="26" as="geometry" />
        </mxCell>
        <mxCell id="Flz3jdfBrqk5ybjkT4bZ-48" value="CommandHandlerA" style="text;align=left;verticalAlign=top;spacingLeft=4;spacingRight=4;overflow=hidden;rotatable=0;points=[[0,0.5],[1,0.5]];portConstraint=eastwest;rounded=0;shadow=0;html=0;" vertex="1" parent="Flz3jdfBrqk5ybjkT4bZ-36">
          <mxGeometry y="104" width="160" height="26" as="geometry" />
        </mxCell>
        <mxCell id="Flz3jdfBrqk5ybjkT4bZ-47" value="CommandHandlerB" style="text;align=left;verticalAlign=top;spacingLeft=4;spacingRight=4;overflow=hidden;rotatable=0;points=[[0,0.5],[1,0.5]];portConstraint=eastwest;rounded=0;shadow=0;html=0;" vertex="1" parent="Flz3jdfBrqk5ybjkT4bZ-36">
          <mxGeometry y="130" width="160" height="26" as="geometry" />
        </mxCell>
        <mxCell id="Flz3jdfBrqk5ybjkT4bZ-133" style="edgeStyle=orthogonalEdgeStyle;rounded=0;orthogonalLoop=1;jettySize=auto;html=1;entryX=0;entryY=0.5;entryDx=0;entryDy=0;" edge="1" parent="WIyWlLk6GJQsqaUBKTNV-1" source="Flz3jdfBrqk5ybjkT4bZ-57" target="zkfFHV4jXpPFQw0GAbJ--3">
          <mxGeometry relative="1" as="geometry">
            <Array as="points">
              <mxPoint x="550" y="370" />
              <mxPoint x="260" y="370" />
              <mxPoint x="260" y="237" />
            </Array>
          </mxGeometry>
        </mxCell>
        <mxCell id="Flz3jdfBrqk5ybjkT4bZ-57" value="ServiceA" style="swimlane;fontStyle=2;align=center;verticalAlign=top;childLayout=stackLayout;horizontal=1;startSize=26;horizontalStack=0;resizeParent=1;resizeLast=0;collapsible=1;marginBottom=0;rounded=0;shadow=0;strokeWidth=1;" vertex="1" parent="WIyWlLk6GJQsqaUBKTNV-1">
          <mxGeometry x="470" y="440" width="160" height="164" as="geometry">
            <mxRectangle x="230" y="140" width="160" height="26" as="alternateBounds" />
          </mxGeometry>
        </mxCell>
        <mxCell id="Flz3jdfBrqk5ybjkT4bZ-58" value="Api" style="text;align=left;verticalAlign=top;spacingLeft=4;spacingRight=4;overflow=hidden;rotatable=0;points=[[0,0.5],[1,0.5]];portConstraint=eastwest;rounded=0;shadow=0;html=0;" vertex="1" parent="Flz3jdfBrqk5ybjkT4bZ-57">
          <mxGeometry y="26" width="160" height="26" as="geometry" />
        </mxCell>
        <mxCell id="Flz3jdfBrqk5ybjkT4bZ-59" value="EndpunktHandlerA" style="text;align=left;verticalAlign=top;spacingLeft=4;spacingRight=4;overflow=hidden;rotatable=0;points=[[0,0.5],[1,0.5]];portConstraint=eastwest;rounded=0;shadow=0;html=0;" vertex="1" parent="Flz3jdfBrqk5ybjkT4bZ-57">
          <mxGeometry y="52" width="160" height="26" as="geometry" />
        </mxCell>
        <mxCell id="Flz3jdfBrqk5ybjkT4bZ-60" value="EndpunktHandlerB" style="text;align=left;verticalAlign=top;spacingLeft=4;spacingRight=4;overflow=hidden;rotatable=0;points=[[0,0.5],[1,0.5]];portConstraint=eastwest;rounded=0;shadow=0;html=0;" vertex="1" parent="Flz3jdfBrqk5ybjkT4bZ-57">
          <mxGeometry y="78" width="160" height="26" as="geometry" />
        </mxCell>
        <mxCell id="Flz3jdfBrqk5ybjkT4bZ-61" value="EndpunktHandlerC" style="text;align=left;verticalAlign=top;spacingLeft=4;spacingRight=4;overflow=hidden;rotatable=0;points=[[0,0.5],[1,0.5]];portConstraint=eastwest;rounded=0;shadow=0;html=0;" vertex="1" parent="Flz3jdfBrqk5ybjkT4bZ-57">
          <mxGeometry y="104" width="160" height="26" as="geometry" />
        </mxCell>
        <mxCell id="Flz3jdfBrqk5ybjkT4bZ-62" value="EndpunktHandlerD" style="text;align=left;verticalAlign=top;spacingLeft=4;spacingRight=4;overflow=hidden;rotatable=0;points=[[0,0.5],[1,0.5]];portConstraint=eastwest;rounded=0;shadow=0;html=0;" vertex="1" parent="Flz3jdfBrqk5ybjkT4bZ-57">
          <mxGeometry y="130" width="160" height="26" as="geometry" />
        </mxCell>
        <mxCell id="Flz3jdfBrqk5ybjkT4bZ-84" style="edgeStyle=orthogonalEdgeStyle;rounded=0;orthogonalLoop=1;jettySize=auto;html=1;entryX=1;entryY=0.5;entryDx=0;entryDy=0;exitX=0.5;exitY=0;exitDx=0;exitDy=0;" edge="1" parent="WIyWlLk6GJQsqaUBKTNV-1" source="Flz3jdfBrqk5ybjkT4bZ-69" target="Flz3jdfBrqk5ybjkT4bZ-3">
          <mxGeometry relative="1" as="geometry">
            <Array as="points">
              <mxPoint x="1190" y="590" />
              <mxPoint x="1050" y="590" />
              <mxPoint x="1050" y="263" />
            </Array>
          </mxGeometry>
        </mxCell>
        <mxCell id="Flz3jdfBrqk5ybjkT4bZ-93" value="" style="edgeStyle=orthogonalEdgeStyle;rounded=0;orthogonalLoop=1;jettySize=auto;html=1;" edge="1" parent="WIyWlLk6GJQsqaUBKTNV-1" source="Flz3jdfBrqk5ybjkT4bZ-69" target="Flz3jdfBrqk5ybjkT4bZ-92">
          <mxGeometry relative="1" as="geometry" />
        </mxCell>
        <mxCell id="Flz3jdfBrqk5ybjkT4bZ-69" value="DBClientA" style="swimlane;fontStyle=2;align=center;verticalAlign=top;childLayout=stackLayout;horizontal=1;startSize=26;horizontalStack=0;resizeParent=1;resizeLast=0;collapsible=1;marginBottom=0;rounded=0;shadow=0;strokeWidth=1;" vertex="1" parent="WIyWlLk6GJQsqaUBKTNV-1">
          <mxGeometry x="1110" y="654" width="160" height="110" as="geometry">
            <mxRectangle x="230" y="140" width="160" height="26" as="alternateBounds" />
          </mxGeometry>
        </mxCell>
        <mxCell id="Flz3jdfBrqk5ybjkT4bZ-70" value="Api" style="text;align=left;verticalAlign=top;spacingLeft=4;spacingRight=4;overflow=hidden;rotatable=0;points=[[0,0.5],[1,0.5]];portConstraint=eastwest;rounded=0;shadow=0;html=0;" vertex="1" parent="Flz3jdfBrqk5ybjkT4bZ-69">
          <mxGeometry y="26" width="160" height="26" as="geometry" />
        </mxCell>
        <mxCell id="Flz3jdfBrqk5ybjkT4bZ-71" value="ExecuteQuery" style="text;align=left;verticalAlign=top;spacingLeft=4;spacingRight=4;overflow=hidden;rotatable=0;points=[[0,0.5],[1,0.5]];portConstraint=eastwest;rounded=0;shadow=0;html=0;" vertex="1" parent="Flz3jdfBrqk5ybjkT4bZ-69">
          <mxGeometry y="52" width="160" height="26" as="geometry" />
        </mxCell>
        <mxCell id="Flz3jdfBrqk5ybjkT4bZ-85" value="ExecuteCommand" style="text;align=left;verticalAlign=top;spacingLeft=4;spacingRight=4;overflow=hidden;rotatable=0;points=[[0,0.5],[1,0.5]];portConstraint=eastwest;rounded=0;shadow=0;html=0;" vertex="1" parent="Flz3jdfBrqk5ybjkT4bZ-69">
          <mxGeometry y="78" width="160" height="26" as="geometry" />
        </mxCell>
        <mxCell id="Flz3jdfBrqk5ybjkT4bZ-80" style="edgeStyle=orthogonalEdgeStyle;rounded=0;orthogonalLoop=1;jettySize=auto;html=1;" edge="1" parent="WIyWlLk6GJQsqaUBKTNV-1" source="Flz3jdfBrqk5ybjkT4bZ-59" target="Flz3jdfBrqk5ybjkT4bZ-42">
          <mxGeometry relative="1" as="geometry" />
        </mxCell>
        <mxCell id="Flz3jdfBrqk5ybjkT4bZ-81" style="edgeStyle=orthogonalEdgeStyle;rounded=0;orthogonalLoop=1;jettySize=auto;html=1;" edge="1" parent="WIyWlLk6GJQsqaUBKTNV-1" source="Flz3jdfBrqk5ybjkT4bZ-60" target="Flz3jdfBrqk5ybjkT4bZ-46">
          <mxGeometry relative="1" as="geometry" />
        </mxCell>
        <mxCell id="Flz3jdfBrqk5ybjkT4bZ-82" style="edgeStyle=orthogonalEdgeStyle;rounded=0;orthogonalLoop=1;jettySize=auto;html=1;" edge="1" parent="WIyWlLk6GJQsqaUBKTNV-1" source="Flz3jdfBrqk5ybjkT4bZ-61" target="Flz3jdfBrqk5ybjkT4bZ-48">
          <mxGeometry relative="1" as="geometry" />
        </mxCell>
        <mxCell id="Flz3jdfBrqk5ybjkT4bZ-83" style="edgeStyle=orthogonalEdgeStyle;rounded=0;orthogonalLoop=1;jettySize=auto;html=1;" edge="1" parent="WIyWlLk6GJQsqaUBKTNV-1" source="Flz3jdfBrqk5ybjkT4bZ-62" target="Flz3jdfBrqk5ybjkT4bZ-47">
          <mxGeometry relative="1" as="geometry" />
        </mxCell>
        <mxCell id="Flz3jdfBrqk5ybjkT4bZ-86" style="edgeStyle=orthogonalEdgeStyle;rounded=0;orthogonalLoop=1;jettySize=auto;html=1;" edge="1" parent="WIyWlLk6GJQsqaUBKTNV-1" source="Flz3jdfBrqk5ybjkT4bZ-42" target="Flz3jdfBrqk5ybjkT4bZ-71">
          <mxGeometry relative="1" as="geometry" />
        </mxCell>
        <mxCell id="Flz3jdfBrqk5ybjkT4bZ-87" style="edgeStyle=orthogonalEdgeStyle;rounded=0;orthogonalLoop=1;jettySize=auto;html=1;entryX=0;entryY=0.5;entryDx=0;entryDy=0;" edge="1" parent="WIyWlLk6GJQsqaUBKTNV-1" source="Flz3jdfBrqk5ybjkT4bZ-46" target="Flz3jdfBrqk5ybjkT4bZ-71">
          <mxGeometry relative="1" as="geometry" />
        </mxCell>
        <mxCell id="Flz3jdfBrqk5ybjkT4bZ-88" style="edgeStyle=orthogonalEdgeStyle;rounded=0;orthogonalLoop=1;jettySize=auto;html=1;" edge="1" parent="WIyWlLk6GJQsqaUBKTNV-1" source="Flz3jdfBrqk5ybjkT4bZ-48" target="Flz3jdfBrqk5ybjkT4bZ-71">
          <mxGeometry relative="1" as="geometry" />
        </mxCell>
        <mxCell id="Flz3jdfBrqk5ybjkT4bZ-89" style="edgeStyle=orthogonalEdgeStyle;rounded=0;orthogonalLoop=1;jettySize=auto;html=1;" edge="1" parent="WIyWlLk6GJQsqaUBKTNV-1" source="Flz3jdfBrqk5ybjkT4bZ-47" target="Flz3jdfBrqk5ybjkT4bZ-85">
          <mxGeometry relative="1" as="geometry" />
        </mxCell>
        <mxCell id="Flz3jdfBrqk5ybjkT4bZ-92" value="DatenbankA" style="ellipse;whiteSpace=wrap;html=1;verticalAlign=top;fontStyle=2;startSize=26;rounded=0;shadow=0;strokeWidth=1;" vertex="1" parent="WIyWlLk6GJQsqaUBKTNV-1">
          <mxGeometry x="1430" y="787" width="190" height="110" as="geometry" />
        </mxCell>
        <mxCell id="Flz3jdfBrqk5ybjkT4bZ-135" style="edgeStyle=orthogonalEdgeStyle;rounded=0;orthogonalLoop=1;jettySize=auto;html=1;exitX=0.5;exitY=0;exitDx=0;exitDy=0;" edge="1" parent="WIyWlLk6GJQsqaUBKTNV-1" source="Flz3jdfBrqk5ybjkT4bZ-112" target="zkfFHV4jXpPFQw0GAbJ--3">
          <mxGeometry relative="1" as="geometry">
            <Array as="points">
              <mxPoint x="560" y="720" />
              <mxPoint x="260" y="720" />
              <mxPoint x="260" y="237" />
            </Array>
          </mxGeometry>
        </mxCell>
        <mxCell id="Flz3jdfBrqk5ybjkT4bZ-112" value="ServiceB" style="swimlane;fontStyle=2;align=center;verticalAlign=top;childLayout=stackLayout;horizontal=1;startSize=26;horizontalStack=0;resizeParent=1;resizeLast=0;collapsible=1;marginBottom=0;rounded=0;shadow=0;strokeWidth=1;" vertex="1" parent="WIyWlLk6GJQsqaUBKTNV-1">
          <mxGeometry x="480" y="760" width="160" height="164" as="geometry">
            <mxRectangle x="230" y="140" width="160" height="26" as="alternateBounds" />
          </mxGeometry>
        </mxCell>
        <mxCell id="Flz3jdfBrqk5ybjkT4bZ-113" value="Api" style="text;align=left;verticalAlign=top;spacingLeft=4;spacingRight=4;overflow=hidden;rotatable=0;points=[[0,0.5],[1,0.5]];portConstraint=eastwest;rounded=0;shadow=0;html=0;" vertex="1" parent="Flz3jdfBrqk5ybjkT4bZ-112">
          <mxGeometry y="26" width="160" height="26" as="geometry" />
        </mxCell>
        <mxCell id="Flz3jdfBrqk5ybjkT4bZ-114" value="EndpunktHandlerA" style="text;align=left;verticalAlign=top;spacingLeft=4;spacingRight=4;overflow=hidden;rotatable=0;points=[[0,0.5],[1,0.5]];portConstraint=eastwest;rounded=0;shadow=0;html=0;" vertex="1" parent="Flz3jdfBrqk5ybjkT4bZ-112">
          <mxGeometry y="52" width="160" height="26" as="geometry" />
        </mxCell>
        <mxCell id="Flz3jdfBrqk5ybjkT4bZ-115" value="EndpunktHandlerB" style="text;align=left;verticalAlign=top;spacingLeft=4;spacingRight=4;overflow=hidden;rotatable=0;points=[[0,0.5],[1,0.5]];portConstraint=eastwest;rounded=0;shadow=0;html=0;" vertex="1" parent="Flz3jdfBrqk5ybjkT4bZ-112">
          <mxGeometry y="78" width="160" height="26" as="geometry" />
        </mxCell>
        <mxCell id="Flz3jdfBrqk5ybjkT4bZ-116" value="EndpunktHandlerC" style="text;align=left;verticalAlign=top;spacingLeft=4;spacingRight=4;overflow=hidden;rotatable=0;points=[[0,0.5],[1,0.5]];portConstraint=eastwest;rounded=0;shadow=0;html=0;" vertex="1" parent="Flz3jdfBrqk5ybjkT4bZ-112">
          <mxGeometry y="104" width="160" height="26" as="geometry" />
        </mxCell>
        <mxCell id="Flz3jdfBrqk5ybjkT4bZ-117" value="EndpunktHandlerD" style="text;align=left;verticalAlign=top;spacingLeft=4;spacingRight=4;overflow=hidden;rotatable=0;points=[[0,0.5],[1,0.5]];portConstraint=eastwest;rounded=0;shadow=0;html=0;" vertex="1" parent="Flz3jdfBrqk5ybjkT4bZ-112">
          <mxGeometry y="130" width="160" height="26" as="geometry" />
        </mxCell>
        <mxCell id="Flz3jdfBrqk5ybjkT4bZ-136" style="edgeStyle=orthogonalEdgeStyle;rounded=0;orthogonalLoop=1;jettySize=auto;html=1;" edge="1" parent="WIyWlLk6GJQsqaUBKTNV-1" source="Flz3jdfBrqk5ybjkT4bZ-118" target="Flz3jdfBrqk5ybjkT4bZ-0">
          <mxGeometry relative="1" as="geometry">
            <Array as="points">
              <mxPoint x="760" y="720" />
              <mxPoint x="260" y="720" />
              <mxPoint x="260" y="211" />
            </Array>
          </mxGeometry>
        </mxCell>
        <mxCell id="Flz3jdfBrqk5ybjkT4bZ-118" value="RespositoryB" style="swimlane;fontStyle=2;align=center;verticalAlign=top;childLayout=stackLayout;horizontal=1;startSize=26;horizontalStack=0;resizeParent=1;resizeLast=0;collapsible=1;marginBottom=0;rounded=0;shadow=0;strokeWidth=1;" vertex="1" parent="WIyWlLk6GJQsqaUBKTNV-1">
          <mxGeometry x="680" y="760" width="160" height="164" as="geometry">
            <mxRectangle x="230" y="140" width="160" height="26" as="alternateBounds" />
          </mxGeometry>
        </mxCell>
        <mxCell id="Flz3jdfBrqk5ybjkT4bZ-119" value="Api" style="text;align=left;verticalAlign=top;spacingLeft=4;spacingRight=4;overflow=hidden;rotatable=0;points=[[0,0.5],[1,0.5]];portConstraint=eastwest;rounded=0;shadow=0;html=0;" vertex="1" parent="Flz3jdfBrqk5ybjkT4bZ-118">
          <mxGeometry y="26" width="160" height="26" as="geometry" />
        </mxCell>
        <mxCell id="Flz3jdfBrqk5ybjkT4bZ-120" value="QueryHandlerA" style="text;align=left;verticalAlign=top;spacingLeft=4;spacingRight=4;overflow=hidden;rotatable=0;points=[[0,0.5],[1,0.5]];portConstraint=eastwest;rounded=0;shadow=0;html=0;" vertex="1" parent="Flz3jdfBrqk5ybjkT4bZ-118">
          <mxGeometry y="52" width="160" height="26" as="geometry" />
        </mxCell>
        <mxCell id="Flz3jdfBrqk5ybjkT4bZ-121" value="QueryHandlerB" style="text;align=left;verticalAlign=top;spacingLeft=4;spacingRight=4;overflow=hidden;rotatable=0;points=[[0,0.5],[1,0.5]];portConstraint=eastwest;rounded=0;shadow=0;html=0;" vertex="1" parent="Flz3jdfBrqk5ybjkT4bZ-118">
          <mxGeometry y="78" width="160" height="26" as="geometry" />
        </mxCell>
        <mxCell id="Flz3jdfBrqk5ybjkT4bZ-122" value="CommandHandlerA" style="text;align=left;verticalAlign=top;spacingLeft=4;spacingRight=4;overflow=hidden;rotatable=0;points=[[0,0.5],[1,0.5]];portConstraint=eastwest;rounded=0;shadow=0;html=0;" vertex="1" parent="Flz3jdfBrqk5ybjkT4bZ-118">
          <mxGeometry y="104" width="160" height="26" as="geometry" />
        </mxCell>
        <mxCell id="Flz3jdfBrqk5ybjkT4bZ-123" value="CommandHandlerB" style="text;align=left;verticalAlign=top;spacingLeft=4;spacingRight=4;overflow=hidden;rotatable=0;points=[[0,0.5],[1,0.5]];portConstraint=eastwest;rounded=0;shadow=0;html=0;" vertex="1" parent="Flz3jdfBrqk5ybjkT4bZ-118">
          <mxGeometry y="130" width="160" height="26" as="geometry" />
        </mxCell>
        <mxCell id="Flz3jdfBrqk5ybjkT4bZ-124" style="edgeStyle=orthogonalEdgeStyle;rounded=0;orthogonalLoop=1;jettySize=auto;html=1;" edge="1" source="Flz3jdfBrqk5ybjkT4bZ-114" target="Flz3jdfBrqk5ybjkT4bZ-120" parent="WIyWlLk6GJQsqaUBKTNV-1">
          <mxGeometry relative="1" as="geometry" />
        </mxCell>
        <mxCell id="Flz3jdfBrqk5ybjkT4bZ-125" style="edgeStyle=orthogonalEdgeStyle;rounded=0;orthogonalLoop=1;jettySize=auto;html=1;" edge="1" source="Flz3jdfBrqk5ybjkT4bZ-115" target="Flz3jdfBrqk5ybjkT4bZ-121" parent="WIyWlLk6GJQsqaUBKTNV-1">
          <mxGeometry relative="1" as="geometry" />
        </mxCell>
        <mxCell id="Flz3jdfBrqk5ybjkT4bZ-126" style="edgeStyle=orthogonalEdgeStyle;rounded=0;orthogonalLoop=1;jettySize=auto;html=1;" edge="1" source="Flz3jdfBrqk5ybjkT4bZ-116" target="Flz3jdfBrqk5ybjkT4bZ-122" parent="WIyWlLk6GJQsqaUBKTNV-1">
          <mxGeometry relative="1" as="geometry" />
        </mxCell>
        <mxCell id="Flz3jdfBrqk5ybjkT4bZ-127" style="edgeStyle=orthogonalEdgeStyle;rounded=0;orthogonalLoop=1;jettySize=auto;html=1;" edge="1" source="Flz3jdfBrqk5ybjkT4bZ-117" target="Flz3jdfBrqk5ybjkT4bZ-123" parent="WIyWlLk6GJQsqaUBKTNV-1">
          <mxGeometry relative="1" as="geometry" />
        </mxCell>
        <mxCell id="Flz3jdfBrqk5ybjkT4bZ-128" style="edgeStyle=orthogonalEdgeStyle;rounded=0;orthogonalLoop=1;jettySize=auto;html=1;" edge="1" source="Flz3jdfBrqk5ybjkT4bZ-120" parent="WIyWlLk6GJQsqaUBKTNV-1" target="Flz3jdfBrqk5ybjkT4bZ-85">
          <mxGeometry relative="1" as="geometry">
            <mxPoint x="1031" y="964" as="targetPoint" />
          </mxGeometry>
        </mxCell>
        <mxCell id="Flz3jdfBrqk5ybjkT4bZ-129" style="edgeStyle=orthogonalEdgeStyle;rounded=0;orthogonalLoop=1;jettySize=auto;html=1;" edge="1" source="Flz3jdfBrqk5ybjkT4bZ-121" parent="WIyWlLk6GJQsqaUBKTNV-1" target="Flz3jdfBrqk5ybjkT4bZ-71">
          <mxGeometry relative="1" as="geometry">
            <mxPoint x="1031" y="964" as="targetPoint" />
          </mxGeometry>
        </mxCell>
        <mxCell id="Flz3jdfBrqk5ybjkT4bZ-130" style="edgeStyle=orthogonalEdgeStyle;rounded=0;orthogonalLoop=1;jettySize=auto;html=1;" edge="1" source="Flz3jdfBrqk5ybjkT4bZ-122" parent="WIyWlLk6GJQsqaUBKTNV-1" target="Flz3jdfBrqk5ybjkT4bZ-71">
          <mxGeometry relative="1" as="geometry">
            <mxPoint x="1031" y="998" as="targetPoint" />
          </mxGeometry>
        </mxCell>
        <mxCell id="Flz3jdfBrqk5ybjkT4bZ-131" style="edgeStyle=orthogonalEdgeStyle;rounded=0;orthogonalLoop=1;jettySize=auto;html=1;" edge="1" source="Flz3jdfBrqk5ybjkT4bZ-123" parent="WIyWlLk6GJQsqaUBKTNV-1" target="Flz3jdfBrqk5ybjkT4bZ-71">
          <mxGeometry relative="1" as="geometry">
            <mxPoint x="1030" y="998" as="targetPoint" />
          </mxGeometry>
        </mxCell>
        <mxCell id="Flz3jdfBrqk5ybjkT4bZ-137" value="DatenbankB" style="ellipse;whiteSpace=wrap;html=1;verticalAlign=top;fontStyle=2;startSize=26;rounded=0;shadow=0;strokeWidth=1;" vertex="1" parent="WIyWlLk6GJQsqaUBKTNV-1">
          <mxGeometry x="1430" y="1020" width="190" height="110" as="geometry" />
        </mxCell>
        <mxCell id="Flz3jdfBrqk5ybjkT4bZ-150" style="edgeStyle=orthogonalEdgeStyle;rounded=0;orthogonalLoop=1;jettySize=auto;html=1;exitX=0.5;exitY=0;exitDx=0;exitDy=0;" edge="1" parent="WIyWlLk6GJQsqaUBKTNV-1" source="Flz3jdfBrqk5ybjkT4bZ-138" target="zkfFHV4jXpPFQw0GAbJ--3">
          <mxGeometry relative="1" as="geometry">
            <Array as="points">
              <mxPoint x="560" y="980" />
              <mxPoint x="260" y="980" />
              <mxPoint x="260" y="237" />
            </Array>
          </mxGeometry>
        </mxCell>
        <mxCell id="Flz3jdfBrqk5ybjkT4bZ-138" value="ServiceC" style="swimlane;fontStyle=2;align=center;verticalAlign=top;childLayout=stackLayout;horizontal=1;startSize=26;horizontalStack=0;resizeParent=1;resizeLast=0;collapsible=1;marginBottom=0;rounded=0;shadow=0;strokeWidth=1;" vertex="1" parent="WIyWlLk6GJQsqaUBKTNV-1">
          <mxGeometry x="480" y="1020" width="160" height="164" as="geometry">
            <mxRectangle x="230" y="140" width="160" height="26" as="alternateBounds" />
          </mxGeometry>
        </mxCell>
        <mxCell id="Flz3jdfBrqk5ybjkT4bZ-139" value="Api" style="text;align=left;verticalAlign=top;spacingLeft=4;spacingRight=4;overflow=hidden;rotatable=0;points=[[0,0.5],[1,0.5]];portConstraint=eastwest;rounded=0;shadow=0;html=0;" vertex="1" parent="Flz3jdfBrqk5ybjkT4bZ-138">
          <mxGeometry y="26" width="160" height="26" as="geometry" />
        </mxCell>
        <mxCell id="Flz3jdfBrqk5ybjkT4bZ-140" value="EndpunktHandlerA" style="text;align=left;verticalAlign=top;spacingLeft=4;spacingRight=4;overflow=hidden;rotatable=0;points=[[0,0.5],[1,0.5]];portConstraint=eastwest;rounded=0;shadow=0;html=0;" vertex="1" parent="Flz3jdfBrqk5ybjkT4bZ-138">
          <mxGeometry y="52" width="160" height="26" as="geometry" />
        </mxCell>
        <mxCell id="Flz3jdfBrqk5ybjkT4bZ-141" value="EndpunktHandlerB" style="text;align=left;verticalAlign=top;spacingLeft=4;spacingRight=4;overflow=hidden;rotatable=0;points=[[0,0.5],[1,0.5]];portConstraint=eastwest;rounded=0;shadow=0;html=0;" vertex="1" parent="Flz3jdfBrqk5ybjkT4bZ-138">
          <mxGeometry y="78" width="160" height="26" as="geometry" />
        </mxCell>
        <mxCell id="Flz3jdfBrqk5ybjkT4bZ-142" value="EndpunktHandlerC" style="text;align=left;verticalAlign=top;spacingLeft=4;spacingRight=4;overflow=hidden;rotatable=0;points=[[0,0.5],[1,0.5]];portConstraint=eastwest;rounded=0;shadow=0;html=0;" vertex="1" parent="Flz3jdfBrqk5ybjkT4bZ-138">
          <mxGeometry y="104" width="160" height="26" as="geometry" />
        </mxCell>
        <mxCell id="Flz3jdfBrqk5ybjkT4bZ-143" value="EndpunktHandlerD" style="text;align=left;verticalAlign=top;spacingLeft=4;spacingRight=4;overflow=hidden;rotatable=0;points=[[0,0.5],[1,0.5]];portConstraint=eastwest;rounded=0;shadow=0;html=0;" vertex="1" parent="Flz3jdfBrqk5ybjkT4bZ-138">
          <mxGeometry y="130" width="160" height="26" as="geometry" />
        </mxCell>
        <mxCell id="Flz3jdfBrqk5ybjkT4bZ-151" style="edgeStyle=orthogonalEdgeStyle;rounded=0;orthogonalLoop=1;jettySize=auto;html=1;exitX=0.5;exitY=0;exitDx=0;exitDy=0;" edge="1" parent="WIyWlLk6GJQsqaUBKTNV-1" source="Flz3jdfBrqk5ybjkT4bZ-144" target="Flz3jdfBrqk5ybjkT4bZ-0">
          <mxGeometry relative="1" as="geometry">
            <Array as="points">
              <mxPoint x="760" y="980" />
              <mxPoint x="260" y="980" />
              <mxPoint x="260" y="211" />
            </Array>
          </mxGeometry>
        </mxCell>
        <mxCell id="Flz3jdfBrqk5ybjkT4bZ-144" value="RespositoryC" style="swimlane;fontStyle=2;align=center;verticalAlign=top;childLayout=stackLayout;horizontal=1;startSize=26;horizontalStack=0;resizeParent=1;resizeLast=0;collapsible=1;marginBottom=0;rounded=0;shadow=0;strokeWidth=1;" vertex="1" parent="WIyWlLk6GJQsqaUBKTNV-1">
          <mxGeometry x="680" y="1020" width="160" height="164" as="geometry">
            <mxRectangle x="230" y="140" width="160" height="26" as="alternateBounds" />
          </mxGeometry>
        </mxCell>
        <mxCell id="Flz3jdfBrqk5ybjkT4bZ-145" value="Api" style="text;align=left;verticalAlign=top;spacingLeft=4;spacingRight=4;overflow=hidden;rotatable=0;points=[[0,0.5],[1,0.5]];portConstraint=eastwest;rounded=0;shadow=0;html=0;" vertex="1" parent="Flz3jdfBrqk5ybjkT4bZ-144">
          <mxGeometry y="26" width="160" height="26" as="geometry" />
        </mxCell>
        <mxCell id="Flz3jdfBrqk5ybjkT4bZ-146" value="QueryHandlerA" style="text;align=left;verticalAlign=top;spacingLeft=4;spacingRight=4;overflow=hidden;rotatable=0;points=[[0,0.5],[1,0.5]];portConstraint=eastwest;rounded=0;shadow=0;html=0;" vertex="1" parent="Flz3jdfBrqk5ybjkT4bZ-144">
          <mxGeometry y="52" width="160" height="26" as="geometry" />
        </mxCell>
        <mxCell id="Flz3jdfBrqk5ybjkT4bZ-147" value="QueryHandlerB" style="text;align=left;verticalAlign=top;spacingLeft=4;spacingRight=4;overflow=hidden;rotatable=0;points=[[0,0.5],[1,0.5]];portConstraint=eastwest;rounded=0;shadow=0;html=0;" vertex="1" parent="Flz3jdfBrqk5ybjkT4bZ-144">
          <mxGeometry y="78" width="160" height="26" as="geometry" />
        </mxCell>
        <mxCell id="Flz3jdfBrqk5ybjkT4bZ-148" value="CommandHandlerA" style="text;align=left;verticalAlign=top;spacingLeft=4;spacingRight=4;overflow=hidden;rotatable=0;points=[[0,0.5],[1,0.5]];portConstraint=eastwest;rounded=0;shadow=0;html=0;" vertex="1" parent="Flz3jdfBrqk5ybjkT4bZ-144">
          <mxGeometry y="104" width="160" height="26" as="geometry" />
        </mxCell>
        <mxCell id="Flz3jdfBrqk5ybjkT4bZ-149" value="CommandHandlerB" style="text;align=left;verticalAlign=top;spacingLeft=4;spacingRight=4;overflow=hidden;rotatable=0;points=[[0,0.5],[1,0.5]];portConstraint=eastwest;rounded=0;shadow=0;html=0;" vertex="1" parent="Flz3jdfBrqk5ybjkT4bZ-144">
          <mxGeometry y="130" width="160" height="26" as="geometry" />
        </mxCell>
        <mxCell id="Flz3jdfBrqk5ybjkT4bZ-164" style="edgeStyle=orthogonalEdgeStyle;rounded=0;orthogonalLoop=1;jettySize=auto;html=1;" edge="1" parent="WIyWlLk6GJQsqaUBKTNV-1" source="Flz3jdfBrqk5ybjkT4bZ-152" target="Flz3jdfBrqk5ybjkT4bZ-137">
          <mxGeometry relative="1" as="geometry" />
        </mxCell>
        <mxCell id="Flz3jdfBrqk5ybjkT4bZ-165" style="edgeStyle=orthogonalEdgeStyle;rounded=0;orthogonalLoop=1;jettySize=auto;html=1;exitX=0.5;exitY=0;exitDx=0;exitDy=0;" edge="1" parent="WIyWlLk6GJQsqaUBKTNV-1" source="Flz3jdfBrqk5ybjkT4bZ-152" target="Flz3jdfBrqk5ybjkT4bZ-6">
          <mxGeometry relative="1" as="geometry">
            <Array as="points">
              <mxPoint x="1200" y="960" />
              <mxPoint x="1050" y="960" />
              <mxPoint x="1050" y="289" />
            </Array>
          </mxGeometry>
        </mxCell>
        <mxCell id="Flz3jdfBrqk5ybjkT4bZ-152" value="DBClientB" style="swimlane;fontStyle=2;align=center;verticalAlign=top;childLayout=stackLayout;horizontal=1;startSize=26;horizontalStack=0;resizeParent=1;resizeLast=0;collapsible=1;marginBottom=0;rounded=0;shadow=0;strokeWidth=1;" vertex="1" parent="WIyWlLk6GJQsqaUBKTNV-1">
          <mxGeometry x="1120" y="1020" width="160" height="110" as="geometry">
            <mxRectangle x="230" y="140" width="160" height="26" as="alternateBounds" />
          </mxGeometry>
        </mxCell>
        <mxCell id="Flz3jdfBrqk5ybjkT4bZ-153" value="Api" style="text;align=left;verticalAlign=top;spacingLeft=4;spacingRight=4;overflow=hidden;rotatable=0;points=[[0,0.5],[1,0.5]];portConstraint=eastwest;rounded=0;shadow=0;html=0;" vertex="1" parent="Flz3jdfBrqk5ybjkT4bZ-152">
          <mxGeometry y="26" width="160" height="26" as="geometry" />
        </mxCell>
        <mxCell id="Flz3jdfBrqk5ybjkT4bZ-154" value="ExecuteQuery" style="text;align=left;verticalAlign=top;spacingLeft=4;spacingRight=4;overflow=hidden;rotatable=0;points=[[0,0.5],[1,0.5]];portConstraint=eastwest;rounded=0;shadow=0;html=0;" vertex="1" parent="Flz3jdfBrqk5ybjkT4bZ-152">
          <mxGeometry y="52" width="160" height="26" as="geometry" />
        </mxCell>
        <mxCell id="Flz3jdfBrqk5ybjkT4bZ-155" value="ExecuteCommand" style="text;align=left;verticalAlign=top;spacingLeft=4;spacingRight=4;overflow=hidden;rotatable=0;points=[[0,0.5],[1,0.5]];portConstraint=eastwest;rounded=0;shadow=0;html=0;" vertex="1" parent="Flz3jdfBrqk5ybjkT4bZ-152">
          <mxGeometry y="78" width="160" height="26" as="geometry" />
        </mxCell>
        <mxCell id="Flz3jdfBrqk5ybjkT4bZ-156" style="edgeStyle=orthogonalEdgeStyle;rounded=0;orthogonalLoop=1;jettySize=auto;html=1;" edge="1" parent="WIyWlLk6GJQsqaUBKTNV-1" source="Flz3jdfBrqk5ybjkT4bZ-143" target="Flz3jdfBrqk5ybjkT4bZ-149">
          <mxGeometry relative="1" as="geometry" />
        </mxCell>
        <mxCell id="Flz3jdfBrqk5ybjkT4bZ-157" style="edgeStyle=orthogonalEdgeStyle;rounded=0;orthogonalLoop=1;jettySize=auto;html=1;" edge="1" parent="WIyWlLk6GJQsqaUBKTNV-1" source="Flz3jdfBrqk5ybjkT4bZ-142" target="Flz3jdfBrqk5ybjkT4bZ-148">
          <mxGeometry relative="1" as="geometry" />
        </mxCell>
        <mxCell id="Flz3jdfBrqk5ybjkT4bZ-158" style="edgeStyle=orthogonalEdgeStyle;rounded=0;orthogonalLoop=1;jettySize=auto;html=1;entryX=0;entryY=0.5;entryDx=0;entryDy=0;" edge="1" parent="WIyWlLk6GJQsqaUBKTNV-1" source="Flz3jdfBrqk5ybjkT4bZ-141" target="Flz3jdfBrqk5ybjkT4bZ-147">
          <mxGeometry relative="1" as="geometry" />
        </mxCell>
        <mxCell id="Flz3jdfBrqk5ybjkT4bZ-159" style="edgeStyle=orthogonalEdgeStyle;rounded=0;orthogonalLoop=1;jettySize=auto;html=1;entryX=0;entryY=0.5;entryDx=0;entryDy=0;" edge="1" parent="WIyWlLk6GJQsqaUBKTNV-1" source="Flz3jdfBrqk5ybjkT4bZ-140" target="Flz3jdfBrqk5ybjkT4bZ-146">
          <mxGeometry relative="1" as="geometry" />
        </mxCell>
        <mxCell id="Flz3jdfBrqk5ybjkT4bZ-160" style="edgeStyle=orthogonalEdgeStyle;rounded=0;orthogonalLoop=1;jettySize=auto;html=1;entryX=0;entryY=0.5;entryDx=0;entryDy=0;" edge="1" parent="WIyWlLk6GJQsqaUBKTNV-1" source="Flz3jdfBrqk5ybjkT4bZ-146" target="Flz3jdfBrqk5ybjkT4bZ-154">
          <mxGeometry relative="1" as="geometry" />
        </mxCell>
        <mxCell id="Flz3jdfBrqk5ybjkT4bZ-161" style="edgeStyle=orthogonalEdgeStyle;rounded=0;orthogonalLoop=1;jettySize=auto;html=1;" edge="1" parent="WIyWlLk6GJQsqaUBKTNV-1" source="Flz3jdfBrqk5ybjkT4bZ-147" target="Flz3jdfBrqk5ybjkT4bZ-154">
          <mxGeometry relative="1" as="geometry" />
        </mxCell>
        <mxCell id="Flz3jdfBrqk5ybjkT4bZ-162" style="edgeStyle=orthogonalEdgeStyle;rounded=0;orthogonalLoop=1;jettySize=auto;html=1;" edge="1" parent="WIyWlLk6GJQsqaUBKTNV-1" source="Flz3jdfBrqk5ybjkT4bZ-148" target="Flz3jdfBrqk5ybjkT4bZ-155">
          <mxGeometry relative="1" as="geometry" />
        </mxCell>
        <mxCell id="Flz3jdfBrqk5ybjkT4bZ-163" style="edgeStyle=orthogonalEdgeStyle;rounded=0;orthogonalLoop=1;jettySize=auto;html=1;entryX=0;entryY=0.5;entryDx=0;entryDy=0;" edge="1" parent="WIyWlLk6GJQsqaUBKTNV-1" source="Flz3jdfBrqk5ybjkT4bZ-149" target="Flz3jdfBrqk5ybjkT4bZ-155">
          <mxGeometry relative="1" as="geometry" />
        </mxCell>
      </root>
    </mxGraphModel>
  </diagram>
</mxfile>
